#N canvas 0 25 1440 847 10;
#X declare -path /root/Bela/projects/pd-externals/zexy;
#X declare -lib /root/Bela/projects/pd-externals/zexy;
#X obj 151 370 + 1;
#X obj 136 389 f;
#X floatatom 167 405 5 0 0 0 - - - 0;
#X text 164 387 counter;
#X msg 181 369 0;
#X obj 335 479 f;
#X obj 511 649 t b b;
#X floatatom 335 627 5 0 0 0 - - - 0;
#X obj 292 34 reflectanceSensor;
#X obj 90 157 + 1;
#X obj 75 176 f;
#X floatatom 106 192 5 0 0 0 - - - 0;
#X text 103 174 counter;
#X obj 23 265 spigot;
#X obj 5 289 bng 16 250 50 0 empty empty empty 0 -8 0 10 #fcfcfc #000000 #000000;
#X obj 6 125 tgl 16 0 empty empty empty 0 -8 0 10 #fcfcfc #000000 #000000 0 1;
#X msg 120 156 0;
#X obj 5 310 t b b b;
#X text 26 289 reset counter \, stop timer;
#X text 26 124 bang 50 times \, turn off counter once at 100;
#X obj 335 135 bng 16 250 50 0 empty empty empty 0 -8 0 10 #fcfcfc #000000 #000000;
#X obj 335 411 t b b;
#X obj 395 612 - 1;
#X obj 395 593 spigot;
#X obj 250 589 spigot;
#X obj 283 417 tgl 16 0 empty empty empty 0 -8 0 10 #fcfcfc #000000 #000000 0 1;
#X obj 426 493 tgl 16 0 empty empty empty 0 -8 0 10 #fcfcfc #000000 #000000 0 1;
#X obj 313 452 bng 16 250 50 0 empty empty empty 0 -8 0 10 #fcfcfc #000000 #000000;
#X obj 426 448 bng 16 250 50 0 empty empty empty 0 -8 0 10 #fcfcfc #000000 #000000;
#X obj 363 272 spigot;
#X obj 396 253 tgl 16 0 empty empty empty 0 -8 0 10 #fcfcfc #000000 #000000 0 1;
#X obj 363 293 t b b;
#X obj 390 314 bng 16 250 50 0 empty empty empty 0 -8 0 10 #fcfcfc #000000 #000000;
#X obj 396 231 loadbang;
#X obj 54 462 s resetCounter;
#X obj 595 235 r resetCounter;
#X obj 534 427 r startCount;
#X obj 391 202 s startCount;
#X obj 534 448 sel 0 1;
#X msg 553 477 0;
#X msg 515 468 1;
#X text 408 281 bang once \, reset;
#X obj 544 597 tgl 16 0 empty empty empty 0 -8 0 10 #fcfcfc #000000 #000000 0 1;
#X obj 511 626 spigot;
#X obj 365 704 <= 0;
#X obj 337 732 sel 0 1;
#X msg 337 753 1;
#X msg 367 753 0;
#X obj 391 71 t b b b;
#X obj 405 51 bng 16 250 50 0 empty empty empty 0 -8 0 10 #fcfcfc #000000 #000000;
#X obj 444 108 bng 16 250 50 0 empty empty empty 0 -8 0 10 #fcfcfc #000000 #000000;
#X obj 364 140 spigot;
#X obj 364 161 t b b;
#X obj 397 119 tgl 16 0 empty empty empty 0 -8 0 10 #fcfcfc #000000 #000000 0 1;
#X obj 395 385 loadbang;
#X obj 319 54 loadbang;
#X msg 362 453 0;
#X obj 250 609 + 1;
#X obj 391 183 tgl 16 0 empty empty empty 0 -8 0 10 #fcfcfc #000000 #000000 0 1;
#X obj 444 130 * 0;
#X text 588 74 testing 210 msec here \, 200 msec down there;
#X obj 391 6 tgl 16 0 empty empty empty 0 -8 0 10 #fcfcfc #000000 #000000 0 1;
#X text 513 11 o- bang on high x- bang on high and low;
#X obj 292 10 bng 16 250 50 0 empty empty empty 0 -8 0 10 #fcfcfc #000000 #000000;
#X text 307 11 recalibrate;
#X obj 511 533 metro 10;
#X obj 132 641 / 100;
#X obj 679 281 spigot;
#X obj 695 181 tgl 16 0 empty empty empty 0 -8 0 10 #fcfcfc #000000 #000000 0 1;
#X obj 712 216 sel 0 1;
#X msg 712 237 1;
#X msg 741 237 0;
#X obj 596 277 spigot;
#X obj 712 261 tgl 16 0 empty empty empty 0 -8 0 10 #fcfcfc #000000 #000000 0 1;
#X obj 635 258 tgl 16 0 empty empty empty 0 -8 0 10 #fcfcfc #000000 #000000 0 1;
#X obj 738 39 loadbang;
#X text 715 180 O- ramp down to 0 1 - straight to 0;
#X obj 426 427 delay 1 20 msec;
#X obj 25 144 metro 10;
#X msg 132 683 \$1 300;
#X obj 828 413 belaUSBkeyboard;
#X obj 829 805 dac~ 1 2;
#X floatatom 828 456 5 0 0 0 - - - 0;
#X obj 828 435 unpack f f;
#X obj 828 476 poly 8 1;
#X obj 828 566 pack f f f f f;
#X obj 828 640 clone simpleOsc 9;
#X msg 888 527 40;
#X msg 917 526 1000;
#X obj 900 489 loadbang;
#X text 889 544 att release;
#X obj 829 700 *~ 0;
#X obj 201 68 s~ rawReflectance;
#X obj 1045 160 r~ rawReflectance;
#X obj 132 662 clip 0 1;
#X obj 132 708 line;
#X obj 1159 161 adc~ 4;
#X obj 1159 63 loadbang;
#X obj 1159 88 metro 30;
#X obj 1159 264 snapshot~;
#X obj 829 721 *~ 0.8;
#X obj 829 761 +~;
#X obj 1095 508 *~;
#X obj 1079 741 *~;
#X obj 59 247 > 999;
#X obj 444 87 delay 1 35 msec;
#X obj 287 791 dac~ 27;
#X obj 1159 114 s poll-pots;
#X obj 1233 241 r poll-pots;
#X obj 1045 573 *~ 0.8;
#X obj 911 243 expr~ $v1 < 0.3;
#X obj 849 22 declare -path /root/Bela/projects/pd-externals/zexy;
#X obj 850 44 declare -lib /root/Bela/projects/pd-externals/zexy;
#X text 845 3 full path declaration needed for externals. ok then.;
#X text 1194 360 count pulses per using of time;
#N canvas 239 91 732 569 pulsesPerUnit 1;
#X obj 12 11 inlet~;
#X obj 12 72 change;
#X obj 12 92 sel 1;
#X obj 12 52 avg~;
#X obj 72 136 f;
#X obj 12 31 >~ 0.5;
#X obj 104 137 + 1;
#X text 88 9 raw reflectance frequency;
#X msg 98 109 0;
#X obj 188 270 / 36;
#X obj 192 153 metro 200;
#X obj 192 131 tgl 16 0 empty empty empty 0 -8 0 10 #fcfcfc #000000 #000000 0 1;
#X obj 192 77 loadbang;
#X obj 192 174 t b b;
#X obj 57 186 f;
#X obj 260 77 inlet;
#X text 259 63 unit of time;
#X obj 190 238 * 5;
#X obj 260 137 t f b f;
#X obj 299 161 expr 1000 / $f1;
#X text 38 393 get rotation per second by: divide pulses per unit of time by number of lines on encoder then multiply by (1000ms/unitOfTime) to get rps. for rpm \, multiply by 60 for frequency \, multiply by number of lines?;
#X text 70 93 count until polled;
#X text 80 189 store variable until polled;
#X obj 280 335 outlet;
#X text 298 310 frequency;
#X obj 188 335 outlet;
#X text 206 313 rps;
#X msg 202 98 50;
#X connect 0 0 5 0;
#X connect 1 0 2 0;
#X connect 2 0 4 0;
#X connect 3 0 1 0;
#X connect 4 0 6 0;
#X connect 4 0 14 1;
#X connect 5 0 3 0;
#X connect 6 0 4 1;
#X connect 8 0 4 0;
#X connect 9 0 25 0;
#X connect 10 0 13 0;
#X connect 11 0 10 0;
#X connect 12 0 11 0;
#X connect 12 0 27 0;
#X connect 13 0 8 0;
#X connect 13 1 14 0;
#X connect 14 0 17 0;
#X connect 15 0 18 0;
#X connect 17 0 9 0;
#X connect 17 0 23 0;
#X connect 18 0 10 1;
#X connect 18 2 19 0;
#X connect 19 0 17 1;
#X connect 27 0 18 0;
#X restore 1178 376 pd pulsesPerUnit;
#X obj 1217 451 dac~ 27;
#X connect 0 0 1 1;
#X connect 1 0 0 0;
#X connect 1 0 2 0;
#X connect 4 0 1 0;
#X connect 5 0 24 0;
#X connect 5 0 7 0;
#X connect 5 0 23 0;
#X connect 6 0 5 0;
#X connect 7 0 44 0;
#X connect 7 0 66 0;
#X connect 8 0 92 0;
#X connect 8 1 48 0;
#X connect 9 0 10 1;
#X connect 10 0 9 0;
#X connect 10 0 11 0;
#X connect 11 0 104 0;
#X connect 11 0 49 0;
#X connect 13 0 14 0;
#X connect 14 0 17 0;
#X connect 15 0 78 0;
#X connect 16 0 10 0;
#X connect 17 0 34 0;
#X connect 17 1 16 0;
#X connect 17 2 15 0;
#X connect 20 0 21 0;
#X connect 20 0 29 0;
#X connect 20 0 1 0;
#X connect 21 0 5 0;
#X connect 21 1 77 0;
#X connect 22 0 5 1;
#X connect 23 0 22 0;
#X connect 24 0 57 0;
#X connect 25 0 24 1;
#X connect 26 0 23 1;
#X connect 26 0 42 0;
#X connect 26 0 65 0;
#X connect 27 0 5 0;
#X connect 28 0 26 0;
#X connect 29 0 31 0;
#X connect 30 0 29 1;
#X connect 31 0 30 0;
#X connect 31 1 32 0;
#X connect 32 0 25 0;
#X connect 33 0 30 0;
#X connect 35 0 30 0;
#X connect 35 0 25 0;
#X connect 35 0 67 0;
#X connect 35 0 72 0;
#X connect 36 0 38 0;
#X connect 38 0 40 0;
#X connect 38 1 39 0;
#X connect 39 0 26 0;
#X connect 40 0 26 0;
#X connect 42 0 43 1;
#X connect 43 0 6 0;
#X connect 44 0 45 0;
#X connect 45 0 46 0;
#X connect 45 1 47 0;
#X connect 46 0 42 0;
#X connect 47 0 42 0;
#X connect 48 0 20 0;
#X connect 48 1 51 0;
#X connect 48 2 105 0;
#X connect 49 0 48 0;
#X connect 50 0 53 0;
#X connect 50 0 34 0;
#X connect 50 0 59 0;
#X connect 51 0 52 0;
#X connect 52 0 53 0;
#X connect 52 1 58 0;
#X connect 53 0 51 1;
#X connect 54 0 26 0;
#X connect 55 0 53 0;
#X connect 56 0 5 1;
#X connect 57 0 5 1;
#X connect 58 0 37 0;
#X connect 59 0 58 0;
#X connect 61 0 8 1;
#X connect 63 0 8 0;
#X connect 65 0 43 0;
#X connect 66 0 94 0;
#X connect 67 0 26 0;
#X connect 68 0 69 0;
#X connect 68 0 74 0;
#X connect 69 0 70 0;
#X connect 69 1 71 0;
#X connect 70 0 73 0;
#X connect 71 0 73 0;
#X connect 72 0 56 0;
#X connect 73 0 67 1;
#X connect 74 0 72 1;
#X connect 75 0 68 0;
#X connect 77 0 28 0;
#X connect 78 0 10 0;
#X connect 78 0 13 0;
#X connect 79 0 95 0;
#X connect 80 0 83 0;
#X connect 82 0 84 0;
#X connect 83 0 82 0;
#X connect 83 1 84 1;
#X connect 84 0 85 0;
#X connect 84 1 85 1;
#X connect 84 2 85 2;
#X connect 85 0 86 0;
#X connect 86 0 91 0;
#X connect 87 0 85 3;
#X connect 88 0 85 4;
#X connect 89 0 87 0;
#X connect 89 0 88 0;
#X connect 91 0 100 0;
#X connect 93 0 102 0;
#X connect 93 0 109 0;
#X connect 93 0 115 0;
#X connect 94 0 79 0;
#X connect 95 0 91 1;
#X connect 95 0 106 0;
#X connect 96 0 99 0;
#X connect 97 0 98 0;
#X connect 98 0 107 0;
#X connect 99 0 103 1;
#X connect 100 0 101 0;
#X connect 100 0 102 1;
#X connect 101 0 81 0;
#X connect 102 0 103 0;
#X connect 103 0 101 1;
#X connect 104 0 13 1;
#X connect 105 0 50 0;
#X connect 108 0 99 0;
#X connect 109 0 81 1;
#X connect 115 0 116 0;
