#N canvas 194 88 1211 550 12;
#N canvas 118 68 649 401 channel 0;
#X obj 301 151 cnv 15 70 48 empty empty empty 20 12 0 14 #606060 #404040 0;
#X obj 306 169 nbx 2 25 0 99 0 0 empty empty midi\ chan 3 -8 0 10 #b8b8b8 #000000 #000000 0 256;
#X obj 309 58 loadbang;
#X obj 250 152 inlet;
#X msg 309 89 1;
#X obj 306 211 s channel;
#X connect 1 0 5 0;
#X connect 2 0 4 0;
#X connect 3 0 1 0;
#X connect 4 0 1 0;
#X coords 0 -1 1 1 92 50 2 300 150;
#X restore 302 276 pd channel;
#X obj 52 149 loadbang;
#X obj 52 217 s bela_setKeyboard;
#X msg 52 186 path /dev/input/event1;
#X text 19 116 from belaKeyboardPD;
#N canvas 77 328 649 401 octave 0;
#X obj 301 151 cnv 15 82 48 empty empty empty 20 12 0 14 #606060 #404040 0;
#X obj 319 171 nbx 2 25 1 11 0 0 empty empty -z-Octave+x+ -20 -8 0 10 #b8b8b8 #000000 #000000 0 256;
#X obj 151 72 key;
#X floatatom 151 98 5 0 0 0 - - - 0;
#X obj 151 199 - 1;
#X floatatom 151 226 5 0 0 0 - - - 0;
#X obj 151 171 f;
#X obj 319 213 t f f f;
#X obj 318 92 loadbang;
#X obj 502 74 key;
#X floatatom 502 100 5 0 0 0 - - - 0;
#X floatatom 502 228 5 0 0 0 - - - 0;
#X obj 502 173 f;
#X obj 502 201 + 1;
#X obj 342 294 s octave;
#X obj 151 122 sel 96;
#X obj 502 124 sel 126;
#X msg 318 119 3;
#X connect 1 0 7 0;
#X connect 2 0 3 0;
#X connect 3 0 15 0;
#X connect 4 0 5 0;
#X connect 5 0 1 0;
#X connect 6 0 4 0;
#X connect 7 0 6 1;
#X connect 7 1 14 0;
#X connect 7 2 12 1;
#X connect 8 0 17 0;
#X connect 9 0 10 0;
#X connect 10 0 16 0;
#X connect 11 0 1 0;
#X connect 12 0 13 0;
#X connect 13 0 11 0;
#X connect 15 0 6 0;
#X connect 16 0 12 0;
#X connect 17 0 1 0;
#X coords 0 -1 1 1 84 50 1 300 150;
#X restore 75 261 pd octave;
#N canvas 118 68 649 401 velocity 0;
#X obj 301 151 cnv 15 48 48 empty empty empty 20 12 0 14 #606060 #404040 0;
#X obj 306 169 nbx 3 25 0 127 0 0 empty empty Volume 3 -8 0 10 #b8b8b8 #000000 #000000 0 256;
#X obj 454 117 r \$0-channel;
#X floatatom 454 146 5 0 0 0 - - - 0;
#X obj 351 235 ctlout 7 1;
#X obj 304 91 loadbang;
#X msg 304 122 100;
#X obj 306 211 s velocity;
#X obj 250 152 inlet;
#X connect 1 0 7 0;
#X connect 2 0 3 0;
#X connect 3 0 4 2;
#X connect 5 0 6 0;
#X connect 6 0 1 0;
#X connect 8 0 1 0;
#X coords 0 -1 1 1 92 50 2 300 150;
#X restore 180 273 pd velocity;
#X obj 275 63 singleKey F#3 51 6 2;
#X obj 314 80 singleKey G#4 52 8 2;
#X obj 353 100 singleKey A#5 53 10 2;
#X obj 392 120 singleKey C-6 54 0 3;
#X obj 413 140 singleKey D-7 55 2 3;
#X obj 443 161 singleKey E-8 56 4 3;
#X obj 463 180 singleKey F#9 57 6 3;
#X obj 492 200 singleKey G#0 48 8 3;
#X obj 517 218 singleKey A#- 45 10 3;
#X obj 540 237 singleKey C-= 61 0 4;
#X obj 236 48 singleKey E-2 50 4 2;
#X obj 203 30 singleKey D-1 49 2 2;
#X text 113 52 keyboard row 1- =;
#X text 480 29 keyboard row q - ];
#X obj 602 33 singleKey A-q 81 9 1;
#X obj 626 49 singleKey B-w 87 11 1;
#X obj 646 69 singleKey C#e 69 1 2;
#X obj 660 87 singleKey D#r 82 3 2;
#X obj 677 105 singleKey F-t 84 5 2;
#X obj 698 121 singleKey G-y 89 7 2;
#X obj 722 140 singleKey A-u 85 9 2;
#X obj 748 158 singleKey B-i 73 11 2;
#X obj 766 176 singleKey C#o 79 1 3;
#X obj 786 195 singleKey D#p 80 3 3;
#X obj 877 295 singleKey E-a 65 4 1;
#X obj 893 314 singleKey F#s 83 6 1;
#X obj 917 337 singleKey G#d 68 8 1;
#X obj 929 361 singleKey A#f 70 10 1;
#X obj 943 381 singleKey C-g 71 0 2;
#X obj 956 400 singleKey D-h 72 2 2;
#X obj 974 420 singleKey E-j 74 4 2;
#X obj 986 439 singleKey F#k 75 6 2;
#X obj 1000 457 singleKey G#l 76 8 2;
#X obj 1006 481 singleKey A#\\\; 59 10 2;
#X obj 598 300 singleKey B-z 90 11 0;
#X obj 1052 505 singleKey C-' 39 0 3;
#X obj 614 319 singleKey C#x 88 1 1;
#X obj 629 339 singleKey D#c 67 3 1;
#X obj 643 357 singleKey F-v 86 5 1;
#X obj 659 378 singleKey G-b 66 7 1;
#X obj 669 396 singleKey A-n 78 9 1;
#X obj 682 414 singleKey B-m 77 11 1;
#X obj 696 432 singleKey C#\\\, 44 1 2;
#X obj 712 450 singleKey D#. 46 3 2;
#X obj 730 468 singleKey F-/ 47 5 2;
#X obj 805 212 singleKey F-[ 91 5 3;
#X obj 820 230 singleKey G-] 93 7 3;
#X text 477 298 keyboard row z - /;
#X text 752 293 keyboard row a - ';
#X obj 169 481 r midinote;
#X obj 169 505 outlet;
#X connect 1 0 3 0;
#X connect 3 0 2 0;
#X connect 56 0 57 0;
