#N canvas 774 46 543 594 10;
#X obj 225 31 keyname;
#X obj 225 146 spigot;
#X obj 252 380 sel 0 1;
#X obj 302 415 t b b;
#X msg 304 470 1;
#X msg 274 120 1;
#X msg 318 120 0;
#X obj 231 442 t b b;
#X msg 227 471 0;
#X obj 304 523 outlet updown;
#X obj 91 525 outlet bang-down;
#X obj 226 220 delay 50;
#X msg 226 243 0;
#X msg 249 196 stop;
#X obj 226 171 sel 0 1;
#X msg 297 222 1;
#X obj 227 266 t f f;
#X obj 350 303 == 0;
#X obj 294 272 spigot 1;
#X obj 258 340 change;
#X obj 356 490 bng 16 250 50 0 empty empty empty 0 -8 0 10 #fcfcfc #000000 #000000;
#X symbolatom 278 54 10 0 0 0 - - - 0;
#X obj 278 97 sel \$1-key;
#X obj 278 74 makefilename %s-key;
#X obj 209 552 outlet bang-up;
#X connect 0 0 1 0;
#X connect 0 1 21 0;
#X connect 1 0 14 0;
#X connect 2 0 7 0;
#X connect 2 1 3 0;
#X connect 3 0 10 0;
#X connect 3 1 4 0;
#X connect 3 1 20 0;
#X connect 4 0 9 0;
#X connect 5 0 1 1;
#X connect 6 0 1 1;
#X connect 7 0 8 0;
#X connect 7 1 24 0;
#X connect 8 0 9 0;
#X connect 11 0 12 0;
#X connect 12 0 16 0;
#X connect 13 0 11 0;
#X connect 14 0 11 0;
#X connect 14 1 13 0;
#X connect 14 1 15 0;
#X connect 15 0 18 0;
#X connect 16 0 18 0;
#X connect 16 1 17 1;
#X connect 17 0 18 1;
#X connect 18 0 19 0;
#X connect 19 0 2 0;
#X connect 21 0 23 0;
#X connect 22 0 5 0;
#X connect 22 1 6 0;
#X connect 23 0 22 0;
