#N canvas 411 385 450 362 12;
#X obj 109 262 spigot;
#X obj 173 243 tgl 19 0 empty empty empty 0 -10 0 12 #fcfcfc #000000 #000000 0 1;
#X obj 116 164 t b b b;
#X obj 94 143 bng 19 250 50 0 empty empty empty 0 -10 0 12 #fcfcfc #000000 #000000;
#X msg 173 217 1;
#X msg 141 316 0;
#X obj 109 286 t b b;
#X obj 173 193 delay 30;
#X obj 115 62 inlet;
#X obj 227 125 inlet;
#X obj 108 339 outlet;
#X obj 69 307 bng 19 250 50 0 empty empty empty 0 -10 0 12 #fcfcfc #000000 #000000;
#X text 181 93 hysterisis control;
#X obj 253 273 loadbang;
#X connect 0 0 6 0;
#X connect 1 0 0 1;
#X connect 2 0 0 0;
#X connect 2 2 7 0;
#X connect 3 0 2 0;
#X connect 4 0 1 0;
#X connect 5 0 1 0;
#X connect 6 0 10 0;
#X connect 6 0 11 0;
#X connect 6 1 5 0;
#X connect 7 0 4 0;
#X connect 8 0 2 0;
#X connect 9 0 7 1;
#X connect 13 0 1 0;
