#N canvas 8 102 840 709 12;
#X obj 70 126 adc~ 3;
#X obj 190 8 loadbang;
#N canvas 718 271 566 286 initialiseSensor 0;
#X obj 280 108 s bela_setDigital;
#X obj 59 230 s bela_digitalOut11;
#X msg 60 159 1;
#X obj 123 155 pipe 100;
#X msg 123 179 0, f 4;
#X obj 210 44 inlet;
#X text 90 111 set emitter irLed to full;
#X text 38 19 https://www.pololu.com/product/4201;
#X text 39 3 Pololu reflectance sensor \, analog version.;
#X text 305 169 ctrl - d-in 1 sensor- a-in 0 v - 5v;
#X text 388 72 ewww \, setting switch;
#X msg 280 77 out 11;
#X connect 2 0 1 0;
#X connect 3 0 4 0;
#X connect 4 0 1 0;
#X connect 5 0 11 0;
#X connect 11 0 0 0;
#X restore 321 105 pd initialiseSensor;
#X obj 190 87 t b b b;
#N canvas 79 106 781 548 calibration 0;
#X obj 33 38 inlet;
#X obj 5 486 outlet;
#X obj 481 364 array max sensorReadings;
#X obj 267 363 array min sensorReadings;
#X obj 117 104 + 1;
#X obj 102 123 f;
#X floatatom 133 139 5 0 0 0 - - - 0;
#X text 130 121 counter;
#X obj 50 212 spigot;
#X obj 32 236 bng 16 250 50 0 empty empty empty 0 -8 0 10 #fcfcfc #000000 #000000;
#X obj 33 72 tgl 16 0 empty empty empty 0 -8 0 10 #fcfcfc #000000 #000000 0 1;
#X msg 147 103 0;
#X text 12 471 send bang once complete;
#X obj 32 257 t b b b;
#X obj 349 176 % 10;
#X text 686 105 analog in pin 0;
#X obj 488 201 snapshot~;
#X obj 464 277 array set sensorReadings;
#X text 53 236 reset counter \, stop timer;
#X obj 349 212 t f f b;
#X floatatom 386 192 5 0 0 0 - - - 0;
#X obj 404 313 sel 0;
#X text 345 151 store 10 values in array;
#X text 445 310 get min and max from last 10 readings;
#X obj 404 334 t b b;
#X floatatom 481 385 5 0 0 0 - - - 0;
#X text 526 423 get min and max (maybe avg better?) and find midpoint (add both \, divide by 2), f 40;
#X obj 481 445 +;
#X obj 481 426 f;
#X msg 444 364 0;
#X obj 481 405 t b f;
#X floatatom 446 467 5 0 0 0 - - - 0;
#X obj 444 385 t f f;
#X floatatom 267 384 5 0 0 0 - - - 0;
#X obj 267 444 +;
#X obj 267 425 f;
#X msg 230 363 0;
#X obj 267 404 t b f;
#X floatatom 232 466 5 0 0 0 - - - 0;
#X obj 230 384 t f f;
#X text 273 469 avg min;
#X text 485 468 avg max;
#X obj 230 99 bng 16 250 50 0 empty empty empty 0 -8 0 10 #fcfcfc #000000 #000000;
#X msg 273 9 0 0 0 0 0 0 0 0 0 0 0;
#X text 247 99 reset;
#X obj 86 194 > 499;
#X obj 233 444 / 50;
#X obj 447 445 / 50;
#X obj 52 91 metro 10;
#X obj 232 486 +;
#X obj 218 508 / 2;
#X floatatom 218 529 5 0 0 0 - - - 0;
#X obj 120 496 outlet;
#X obj 229 10 inlet;
#X obj 274 35 array define -yrange 0 1 sensorReadings 10;
#X text 53 71 bang 500 times \, turn off counter once at 100;
#X obj 696 79 inlet~;
#X connect 0 0 10 0;
#X connect 2 0 25 0;
#X connect 3 0 33 0;
#X connect 4 0 5 1;
#X connect 5 0 4 0;
#X connect 5 0 6 0;
#X connect 6 0 14 0;
#X connect 6 0 45 0;
#X connect 8 0 9 0;
#X connect 9 0 13 0;
#X connect 10 0 48 0;
#X connect 11 0 5 0;
#X connect 13 0 1 0;
#X connect 13 1 11 0;
#X connect 13 2 10 0;
#X connect 14 0 19 0;
#X connect 14 0 20 0;
#X connect 16 0 17 0;
#X connect 19 0 21 0;
#X connect 19 1 17 1;
#X connect 19 2 16 0;
#X connect 21 0 24 0;
#X connect 24 0 3 0;
#X connect 24 1 2 0;
#X connect 25 0 30 0;
#X connect 27 0 28 1;
#X connect 28 0 27 0;
#X connect 28 0 47 0;
#X connect 29 0 32 0;
#X connect 30 0 28 0;
#X connect 30 1 27 1;
#X connect 31 0 49 1;
#X connect 32 0 28 0;
#X connect 32 1 25 0;
#X connect 33 0 37 0;
#X connect 34 0 35 1;
#X connect 35 0 34 0;
#X connect 35 0 46 0;
#X connect 36 0 39 0;
#X connect 37 0 35 0;
#X connect 37 1 34 1;
#X connect 38 0 49 0;
#X connect 39 0 35 0;
#X connect 39 1 33 0;
#X connect 42 0 36 0;
#X connect 42 0 29 0;
#X connect 42 0 43 0;
#X connect 43 0 54 0;
#X connect 45 0 8 1;
#X connect 46 0 38 0;
#X connect 47 0 31 0;
#X connect 48 0 5 0;
#X connect 48 0 8 0;
#X connect 49 0 50 0;
#X connect 50 0 51 0;
#X connect 51 0 52 0;
#X connect 53 0 42 0;
#X connect 56 0 16 0;
#X restore 239 215 pd calibration;
#X obj 321 194 bng 16 250 50 0 empty empty empty 0 -8 0 10 #fcfcfc #000000 #000000;
#X text 345 193 reset;
#X obj 291 619 outlet;
#X text 336 543 bang;
#X obj 291 543 sel 1;
#X obj 323 587 spigot;
#X obj 491 456 inlet;
#X obj 491 539 tgl 19 0 empty empty empty 0 -10 0 12 #fcfcfc #000000 #000000 0 1;
#X text 414 475 default to only send 1s toggle to send bang on 0 and 1;
#X obj 272 29 inlet;
#X obj 272 53 t b b b;
#X text 314 28 Bang to stop and recalibrate;
#X text 39 108 Set analog in pin;
#X text 344 210 calibration happens in first 10 seconds of load. Returns mid point between max and min values., f 48;
#X obj 74 618 outlet~;
#X obj 70 208 *~ 5;
#X obj 70 229 -~ 4.25;
#X obj 70 275 *~ 2;
#X obj 70 296 -~ 1;
#X obj 70 251 <~ 0.3;
#X text 78 600 output square wave.;
#X obj 291 460 >~ 0.5;
#X obj 291 512 change;
#X obj 291 492 avg~;
#X text 342 623 output bang per high reflectance measured;
#X text 331 175 redundant for now.;
#X connect 0 0 4 2;
#X connect 0 0 20 0;
#X connect 1 0 3 0;
#X connect 3 1 4 0;
#X connect 5 0 4 1;
#X connect 9 0 7 0;
#X connect 9 1 10 0;
#X connect 10 0 7 0;
#X connect 11 0 12 0;
#X connect 12 0 10 1;
#X connect 14 0 15 0;
#X connect 15 0 3 0;
#X connect 15 1 5 0;
#X connect 20 0 21 0;
#X connect 21 0 24 0;
#X connect 22 0 23 0;
#X connect 23 0 19 0;
#X connect 23 0 26 0;
#X connect 24 0 22 0;
#X connect 26 0 28 0;
#X connect 27 0 9 0;
#X connect 28 0 27 0;
