#N canvas 303 127 876 719 12;
#X obj 92 14 inlet;
#X obj 17 206 osc~;
#X obj 92 403 outlet~;
#X obj 92 342 *~;
#X obj 226 266 *~;
#X obj 226 294 *~;
#X obj 226 238 line~;
#X obj 92 68 t f b, f 8;
#X obj 145 200 pack 1 10;
#X floatatom 50 123 5 0 0 0 - - - 0;
#X obj 226 202 pack 0 4000;
#X obj 363 71 select 0 1;
#X obj 363 95 bng 19 250 50 0 empty empty empty 0 -10 0 12 #fcfcfc #000000 #000000;
#X obj 395 95 bng 19 250 50 0 empty empty empty 0 -10 0 12 #fcfcfc #000000 #000000;
#X obj 92 38 unpack f f f f;
#X obj 363 47 > 0;
#X obj 92 92 mtof;
#X obj 281 92 / 127;
#X connect 0 0 14 0;
#X connect 1 0 3 0;
#X connect 3 0 2 0;
#X connect 4 0 5 0;
#X connect 4 0 5 1;
#X connect 5 0 3 1;
#X connect 6 0 4 0;
#X connect 6 0 4 1;
#X connect 7 0 9 0;
#X connect 7 0 16 0;
#X connect 8 0 6 0;
#X connect 10 0 6 0;
#X connect 11 0 12 0;
#X connect 11 1 13 0;
#X connect 12 0 10 0;
#X connect 13 0 8 0;
#X connect 14 0 7 0;
#X connect 14 1 15 0;
#X connect 14 1 17 0;
#X connect 14 2 8 1;
#X connect 14 3 10 1;
#X connect 15 0 11 0;
#X connect 16 0 1 0;
#X connect 17 0 8 0;
